<svg id="Scroll" xmlns="http://www.w3.org/2000/svg" width="22" height="32" viewBox="0 0 22 32">
  <g id="Grupa_1" data-name="Grupa 1">
    <path id="Prostokąt_zaokrąglony_1" data-name="Prostokąt zaokrąglony 1" d="M11,1A10.011,10.011,0,0,0,1,11V21a10,10,0,0,0,20,0V11A10.011,10.011,0,0,0,11,1m0-1A11,11,0,0,1,22,11V21A11,11,0,0,1,0,21V11A11,11,0,0,1,11,0Z" fill="#fff"/>
    <path id="Prostokąt_zaokrąglony_2" data-name="Prostokąt zaokrąglony 2" d="M11,8V8h0m0-1a1,1,0,0,1,1,1v4a1,1,0,0,1-2,0V8A1,1,0,0,1,11,7Z" fill="#fff"/>
  </g>
</svg>
